<?xml version="1.0" encoding="utf-8"?>
<!-- Generator: Adobe Illustrator 23.0.3, SVG Export Plug-In . SVG Version: 6.00 Build 0)  -->
<svg version="1.1" xmlns="http://www.w3.org/2000/svg" xmlns:xlink="http://www.w3.org/1999/xlink" x="0px" y="0px"
	 viewBox="0 0 333.64 269.22" style="enable-background:new 0 0 333.64 269.22;" xml:space="preserve">
<style type="text/css">
	.st0{display:none;}
	.st1{display:inline;}
	.st2{display:inline;fill:none;stroke:#000000;stroke-width:4;stroke-miterlimit:10;}
	.st3{display:inline;fill:none;stroke:#000000;stroke-width:5;stroke-miterlimit:10;}
	.st4{display:inline;fill:#FFFFFF;}
	.st5{fill:#FFFFFF;stroke:#231815;stroke-miterlimit:10;}
	.st6{fill:#FFFFFF;}
</style>
<g id="圖層_1" class="st0">
</g>
<g id="圖層_2" class="st0">
</g>
<g id="圖層_3">
	<path class="st6" d="M228.44,53c-0.24-0.59-0.81-0.97-1.44-0.97h-58.04v0H92.67c-0.87,0-1.57,0.71-1.55,1.58l0.33,16.07
		c0.02,0.85,0.71,1.52,1.55,1.52h42.31c0.86,0,1.56,0.7,1.55,1.56l-0.38,103.2c0,1.23-1.37,1.97-2.4,1.3l-18.06-11.71
		c-0.43-0.28-0.96-0.33-1.43-0.13l-22.18,9.08c-1.19,0.49-1.31,2.12-0.2,2.77l66.97,39.67c1.04,0.61,2.34-0.13,2.34-1.34V73.14
		c0-0.86,0.7-1.55,1.55-1.55h4.58c0.85,0,1.54,0.68,1.55,1.54l1.68,142.53c0.01,1.19,1.31,1.92,2.34,1.32l68.53-40.07
		c0.48-0.28,0.77-0.79,0.77-1.34V88.32c0-0.2-0.04-0.4-0.11-0.58L228.44,53z M222.61,160.87l-30.15,18.45
		c-1.04,0.63-2.36-0.11-2.36-1.33V73.14c0-0.86,0.7-1.55,1.55-1.55h21.68c0.62,0,1.18,0.37,1.43,0.94l8.47,19.7
		c0.08,0.19,0.13,0.4,0.13,0.61v66.7C223.35,160.08,223.07,160.59,222.61,160.87z"/>
</g>
</svg>
